<svg xmlns="http://www.w3.org/2000/svg" width="24" height="24" fill="none" viewBox="0 0 24 24"><g clip-path="url(#clip0_34_8)"><path fill="#fff" fill-rule="evenodd" d="M16 17V5.23597L16.888 3.45997C16.9603 3.31549 16.9968 3.15578 16.9946 2.99426C16.9924 2.83273 16.9514 2.67409 16.8752 2.53166C16.799 2.38923 16.6897 2.26715 16.5566 2.17568C16.4234 2.08421 16.2703 2.02601 16.11 2.00597L12.155 1.51197C12.0521 1.4991 11.9479 1.4991 11.845 1.51197L7.89 2.00597C7.72971 2.02601 7.57656 2.08421 7.44341 2.17568C7.31026 2.26715 7.20099 2.38923 7.12478 2.53166C7.04857 2.67409 7.00763 2.83273 7.00541 2.99426C7.00318 3.15578 7.03974 3.31549 7.112 3.45997L8 5.23597V17H6.25C5.56 17 5 17.56 5 18.25V20H4C3.73478 20 3.48043 20.1053 3.29289 20.2929C3.10536 20.4804 3 20.7347 3 21C3 21.2652 3.10536 21.5195 3.29289 21.7071C3.48043 21.8946 3.73478 22 4 22H20C20.2652 22 20.5196 21.8946 20.7071 21.7071C20.8946 21.5195 21 21.2652 21 21C21 20.7347 20.8946 20.4804 20.7071 20.2929C20.5196 20.1053 20.2652 20 20 20H19V18.25C19 17.56 18.44 17 17.75 17H16ZM12 3.50797L9.527 3.81697L9.789 4.34197C9.92774 4.61956 9.99998 4.92563 10 5.23597V17H14V5.23597C14 4.92563 14.0723 4.61956 14.211 4.34197L14.473 3.81697L12 3.50797ZM17 20V19H7V20H17Z" clip-rule="evenodd"/></g><defs><clipPath id="clip0_34_8"><rect width="24" height="24" fill="#fff"/></clipPath></defs></svg>