<svg xmlns="http://www.w3.org/2000/svg" width="18" height="18" fill="none" viewBox="0 0 18 18"><g clip-path="url(#clip0_19_180)"><path fill="#fff" d="M15.9 1.125C15.7 0.45 15.1 0 14.5 0H3.5C2.8 0 2.3 0.45 2.1 1.125L0 7.875V16.875C0 17.4375 0.5 18 1 18H2C2.6 18 3 17.4375 3 16.875V15.75H15V16.875C15 17.4375 15.5 18 16 18H17C17.5 18 18 17.4375 18 16.875V7.875L15.9 1.125ZM3.8 2.25H14.1L15.2 5.625H2.8L3.8 2.25ZM16 13.5H2V7.875H16V13.5ZM4.5 9C5.3 9 6 9.7875 6 10.6875C6 11.5875 5.3 12.375 4.5 12.375C3.7 12.375 3 11.5875 3 10.6875C3 9.7875 3.7 9 4.5 9ZM13.5 9C14.3 9 15 9.7875 15 10.6875C15 11.5875 14.3 12.375 13.5 12.375C12.7 12.375 12 11.5875 12 10.6875C12 9.7875 12.7 9 13.5 9Z"/></g><defs><clipPath id="clip0_19_180"><rect width="18" height="18" fill="#fff"/></clipPath></defs></svg>