<svg xmlns="http://www.w3.org/2000/svg" width="52" height="52" fill="none" viewBox="0 0 52 52"><path fill="#018DF4" fill-rule="evenodd" d="M33.4053 12.2265C33.1065 11.749 32.6663 11.3766 32.1459 11.1611C31.6255 10.9456 31.0509 10.8976 30.502 11.024L26.6063 11.9188C26.2071 12.0106 25.7922 12.0106 25.393 11.9188L21.4973 11.024C20.9484 10.8976 20.3738 10.9456 19.8534 11.1611C19.3331 11.3766 18.8928 11.749 18.594 12.2265L16.4707 15.6151C16.254 15.9618 15.9615 16.2543 15.6148 16.4731L12.2262 18.5965C11.7495 18.895 11.3777 19.3345 11.1622 19.854C10.9467 20.3735 10.8983 20.9472 11.0237 21.4955L11.9185 25.3955C12.0099 25.794 12.0099 26.2081 11.9185 26.6066L11.0237 30.5045C10.8978 31.0531 10.946 31.6272 11.1615 32.1472C11.377 32.6671 11.7491 33.107 12.2262 33.4056L15.6148 35.529C15.9615 35.7456 16.254 36.0381 16.4728 36.3848L18.5962 39.7735C19.2072 40.7506 20.3728 41.2338 21.4973 40.976L25.393 40.0811C25.7922 39.9894 26.2071 39.9894 26.6063 40.0811L30.5042 40.976C31.0528 41.1018 31.6269 41.0537 32.1469 40.8382C32.6668 40.6227 33.1067 40.2505 33.4053 39.7735L35.5287 36.3848C35.7453 36.0381 36.0378 35.7456 36.3845 35.529L39.7753 33.4056C40.2524 33.1065 40.6244 32.6662 40.8395 32.1458C41.0546 31.6255 41.1022 31.051 40.9757 30.5023L40.083 26.6066C39.9913 26.2074 39.9913 25.7926 40.083 25.3933L40.9778 21.4955C41.1039 20.9471 41.0561 20.3731 40.841 19.8532C40.6259 19.3333 40.2542 18.8933 39.7775 18.5943L36.3867 16.471C36.0405 16.2539 35.7479 15.9613 35.5308 15.6151L33.4053 12.2265ZM32.3155 21.1683C32.4495 20.9219 32.4827 20.6331 32.4081 20.3627C32.3335 20.0923 32.157 19.8613 31.9156 19.7185C31.6742 19.5756 31.3868 19.5319 31.1139 19.5967C30.8409 19.6614 30.6037 19.8294 30.4522 20.0655L24.7863 29.6551L21.3652 26.3791C21.2637 26.2749 21.1422 26.1922 21.0081 26.136C20.8739 26.0797 20.7298 26.051 20.5844 26.0517C20.4389 26.0523 20.295 26.0822 20.1614 26.1397C20.0277 26.1971 19.907 26.2808 19.8064 26.3859C19.7059 26.491 19.6275 26.6153 19.576 26.7514C19.5244 26.8874 19.5008 27.0324 19.5066 27.1778C19.5123 27.3231 19.5473 27.4658 19.6094 27.5974C19.6715 27.729 19.7594 27.8467 19.868 27.9435L24.275 32.1663C24.393 32.2791 24.5349 32.3638 24.6901 32.414C24.8454 32.4643 25.01 32.4788 25.1717 32.4565C25.3333 32.4342 25.4879 32.3757 25.6237 32.2853C25.7596 32.1949 25.8733 32.075 25.9563 31.9345L32.3155 21.1683Z" clip-rule="evenodd"/></svg>